PathFileType	4	(X/Y/Z)	D:\TRACE\v60_Jaco2_6-2-23\JustBodyDRS_Motion3_4-platform.trc
DataRate	CameraRate	NumFrames	NumMarkers	Units	OrigDataRate	OrigDataStartFrame	OrigNumFrames
100.00	100.00	      67	5	mm	100.00	3501	      7000
Frame#	Time	Left_Front			Right_Front			Left_Aft			Right_Aft			Post			
		X1	Y1	Z1	X2	Y2	Z2	X3	Y3	Z3	X4	Y4	Z4	X5	Y5	Z5	

3501	35.000	-750.26251	14.15410	-649.21869	820.25006	12.57374	-626.46741	-682.02924	7.98361	484.58356	732.47699	5.29042	590.01813	44.71443	1314.10583	-953.28009	
3502	35.010	-750.45587	13.67079	-649.38947	820.27075	12.18548	-626.53796	-682.09082	8.22522	484.42004	732.42542	5.48103	589.68750	45.36398	1313.37366	-954.43066	
3503	35.020	-750.44806	13.30697	-649.48285	820.30829	11.64448	-626.73981	-682.19214	8.56682	484.38736	732.67456	5.75800	589.84119	45.36521	1312.91675	-955.42517	
3504	35.030	-750.40503	13.09287	-649.55328	820.43481	11.30558	-626.80127	-682.25366	9.04128	484.15222	732.94043	6.20378	589.98694	45.19239	1312.26575	-956.52698	
3505	35.040	-750.28534	12.83350	-649.62659	820.41626	10.90789	-626.93152	-682.07214	9.37411	484.07233	732.95874	6.48595	590.02899	45.27539	1311.54749	-957.25439	
3506	35.050	-750.18207	12.28187	-649.71204	820.53290	10.48671	-627.05005	-681.77979	9.53217	483.89285	732.68286	6.73417	590.02740	45.47731	1310.72925	-958.21014	
3507	35.060	-750.12213	11.18060	-649.77136	820.68994	10.12513	-627.12103	-681.64917	9.66212	483.92041	732.71063	7.09806	589.57751	45.55897	1310.37378	-959.21484	
3508	35.070	-750.34259	10.74261	-649.90485	820.67316	9.71410	-627.11670	-681.59100	9.79534	483.84894	732.83679	7.58717	589.51245	45.29717	1309.69324	-960.18182	
3509	35.080	-750.42047	10.57035	-649.95563	820.58789	9.13035	-627.41479	-681.55511	10.12864	483.66000	733.01117	8.10806	589.47833	45.49870	1308.68591	-961.09796	
3510	35.090	-750.10864	10.40092	-650.22198	820.66010	8.60184	-627.51703	-681.53772	10.54784	483.54590	732.96155	8.41005	589.29742	45.70072	1308.21692	-961.82684	
3511	35.100	-750.06805	9.95216	-650.46332	820.76910	8.09469	-627.62781	-681.44226	10.86345	483.40826	733.00928	8.62353	589.22205	45.97086	1307.65771	-962.85187	
3512	35.110	-750.08539	9.49861	-650.65723	820.84229	7.76234	-627.69904	-681.39337	11.03093	483.35452	733.12482	8.86952	589.06610	45.75043	1306.99243	-963.82092	
3513	35.120	-750.03516	9.03001	-650.84222	820.92499	7.43207	-627.69336	-681.37677	11.40008	483.40082	733.23083	9.20508	588.99542	45.98923	1306.39392	-964.82721	
3514	35.130	-749.89667	8.38723	-650.68298	820.91852	6.92479	-627.94550	-681.35132	11.82891	483.30392	733.25555	9.66230	588.86517	46.11583	1305.58264	-965.78284	
3515	35.140	-749.71967	7.94730	-650.65979	820.99005	6.48206	-628.02191	-681.32880	12.39976	482.94672	733.47369	10.23560	588.77344	46.00245	1304.94507	-966.99915	
3516	35.150	-749.54950	7.55319	-650.82275	821.15033	6.06016	-628.21002	-681.11066	12.41034	483.17694	733.58966	10.71873	588.69464	46.36277	1304.24500	-968.01050	
3517	35.160	-749.57123	7.05537	-651.09363	821.18848	5.64154	-628.26984	-681.06256	12.64909	483.02747	733.17627	10.54133	588.34448	46.34380	1303.51392	-968.86243	
3518	35.170	-749.63275	6.42697	-651.33313	821.11890	5.15998	-628.23291	-680.99750	12.91333	482.90616	733.19659	10.73336	588.11969	46.29550	1302.95300	-969.93555	
3519	35.180	-749.50055	5.81760	-651.80438	821.02069	4.54804	-628.49963	-681.01367	13.22692	482.62399	733.07190	11.11394	588.45837	46.22602	1302.23340	-971.05182	
3520	35.190	-749.35132	5.45313	-651.74017	821.16034	4.14457	-628.53931	-680.99500	13.48989	482.45966	733.15918	11.64517	588.32129	46.45214	1301.61438	-972.04437	
3521	35.200	-749.27313	5.22514	-651.54376	821.35724	3.74562	-628.68164	-680.74896	13.67845	482.47522	733.39294	12.04349	587.97211	46.53542	1300.94739	-972.92230	
3522	35.210	-749.27258	4.96306	-651.75391	821.67474	3.24186	-629.05597	-680.62573	14.02119	482.43719	733.56110	12.43308	587.97455	46.33908	1300.32190	-973.98096	
3523	35.220	-749.24524	4.60739	-651.96771	821.39288	2.98923	-628.75006	-680.39996	14.27309	482.39514	733.53149	12.84017	587.92664	46.43228	1299.61646	-974.86670	
3524	35.230	-749.14105	4.04364	-652.05713	821.44604	2.53698	-628.97723	-680.53278	14.48513	482.29779	733.54449	13.15372	587.78424	46.62585	1298.95032	-975.79132	
3525	35.240	-749.08301	3.28287	-652.24359	821.52972	2.14732	-629.06976	-680.43597	14.71054	482.12244	733.59723	13.48783	587.68195	46.95509	1298.53967	-976.48517	
3526	35.250	-748.96082	3.11084	-652.10730	821.59863	1.67258	-629.10065	-680.35291	14.96537	481.95108	733.79987	13.83928	587.65924	46.86111	1297.86255	-977.36749	
3527	35.260	-748.99097	2.82407	-652.19415	821.64685	1.31890	-629.26453	-680.24188	15.21689	481.73636	733.75031	14.14885	587.70068	46.83681	1297.09814	-978.37524	
3528	35.270	-749.04333	2.32344	-652.37097	821.68256	0.97897	-629.22766	-680.33417	15.60682	481.75140	733.99219	14.74583	587.58527	46.92367	1296.79114	-979.12695	
3529	35.280	-749.04443	1.89781	-652.49524	821.73279	0.58850	-629.36835	-680.22357	15.82593	481.69409	734.08319	14.99092	587.44891	47.32124	1296.27246	-979.67706	
3530	35.290	-749.00476	1.62573	-652.47614	821.80627	0.09122	-629.41803	-680.18463	16.01205	481.63461	734.20667	15.16892	587.32349	47.03908	1295.09790	-980.51001	
3531	35.300	-748.92834	1.36980	-652.44519	821.83197	-0.26016	-629.52167	-680.17645	16.23454	481.56754	734.27966	15.44180	587.18860	47.12783	1294.96387	-981.56561	
3532	35.310	-748.86090	1.21508	-652.50018	821.85138	-0.38625	-629.59674	-680.19635	16.52957	481.47794	734.43896	15.65984	587.08270	47.16756	1294.71143	-982.21185	
3533	35.320	-748.77747	1.05118	-652.55969	821.92499	-0.54973	-629.67151	-680.18488	16.80468	481.39612	734.57513	15.87544	586.97864	46.77673	1293.88721	-982.67175	
3534	35.330	-748.70007	0.50877	-652.58356	822.33307	-1.18330	-630.03979	-680.10596	17.07245	481.34756	734.62518	16.21240	586.80615	47.44590	1293.45764	-983.55933	
3535	35.340	-748.53864	-0.35869	-652.47577	822.00201	-1.69154	-629.91217	-679.99951	17.23743	481.26297	734.56329	16.63996	586.96399	47.73017	1292.81982	-984.31122	
3536	35.350	-748.52917	-0.91055	-652.49805	822.01685	-1.98647	-630.00323	-679.93915	17.51736	481.23065	734.72473	17.01706	586.96533	47.50590	1292.19421	-985.24786	
3537	35.360	-748.50269	-1.10798	-652.68695	822.09064	-2.12501	-630.04669	-679.84515	17.77150	481.22662	734.80505	17.24577	586.73840	47.51216	1291.80261	-986.14221	
3538	35.370	-748.71643	-1.26114	-652.62921	822.23657	-2.38891	-630.08484	-679.79590	17.98451	481.12653	734.81757	17.55399	586.62756	47.62382	1291.45618	-986.81885	
3539	35.380	-748.72473	-1.35389	-652.61444	822.41791	-2.63245	-630.09167	-679.64417	18.20254	481.14905	734.81860	17.70129	586.57703	47.45710	1291.23157	-987.82831	
3540	35.390	-748.84381	-1.67082	-652.41724	822.41241	-2.78485	-630.11676	-679.62701	18.40473	481.13596	734.82056	17.87652	586.56189	47.55767	1290.76868	-988.73474	
3541	35.400	-748.66028	-1.88142	-652.46613	822.44214	-3.09300	-630.02173	-679.65149	18.47401	481.11172	734.79089	18.03967	586.55695	47.80325	1290.34253	-989.29279	
3542	35.410	-748.56744	-1.98803	-652.42181	822.48395	-3.59801	-630.52399	-679.61670	18.60668	481.03998	734.84991	18.14707	586.56372	47.91022	1290.00317	-989.61920	
3543	35.420	-748.43597	-2.11116	-652.56757	822.49707	-3.69001	-630.53949	-679.60565	18.73062	481.01004	734.90436	18.30218	586.54504	47.88028	1289.84363	-989.81952	
3544	35.430	-748.04431	-2.26166	-652.85669	822.63995	-3.74946	-630.51031	-679.61255	18.86759	480.86292	734.92352	18.43828	586.43878	47.88505	1289.72766	-989.89325	
3545	35.440	-747.99890	-2.41841	-652.93280	822.38116	-3.75050	-630.31390	-679.57593	18.94637	480.78659	734.82629	18.56808	586.38568	47.85956	1289.56238	-989.82947	
3546	35.450	-747.96741	-2.54788	-653.03369	822.49890	-4.01843	-630.32568	-679.57593	19.07260	480.69196	734.82288	18.59903	586.29669	47.76249	1289.19885	-989.75635	
3547	35.460	-747.91864	-2.80987	-653.17438	822.52673	-4.28543	-630.35889	-679.80872	19.51431	480.39828	734.82123	18.65948	586.27625	47.83747	1288.82141	-989.76678	
3548	35.470	-747.88727	-2.87098	-653.27197	822.50146	-4.47402	-630.42078	-679.69604	19.46655	480.40860	734.96344	18.78461	586.29047	48.00283	1288.55029	-989.92590	
3549	35.480	-747.77875	-3.09545	-653.35974	822.57440	-4.46145	-630.44012	-679.56659	19.65833	480.32709	735.05597	18.90326	586.25580	48.02322	1288.38684	-990.21783	
3550	35.490	-747.74994	-3.25924	-653.44727	822.68567	-4.53844	-630.48749	-679.53021	19.80690	480.28201	735.14624	18.99853	586.20746	48.09415	1288.33276	-990.43127	
3551	35.500	-747.82208	-3.39395	-653.50739	822.65833	-4.69989	-630.52167	-679.41559	19.53230	480.53952	735.08575	19.02335	586.12933	47.99446	1288.11841	-991.01282	
3552	35.510	-747.85919	-3.52222	-653.53296	822.54773	-4.76537	-630.51782	-679.35016	19.34547	480.56192	735.05249	18.95824	586.16376	48.16553	1287.93579	-991.53589	
3553	35.520	-747.82367	-3.44673	-653.59735	822.49408	-4.85514	-630.51227	-679.35303	19.34082	480.59894	735.06738	19.01940	586.14392	48.14183	1287.90137	-992.13794	
3554	35.530	-747.92572	-3.42691	-653.59955	822.56097	-4.82773	-630.47717	-679.36646	19.40848	480.58710	735.13959	18.98985	586.22333	48.22894	1287.87537	-992.57922	
3555	35.540	-747.73163	-3.44815	-653.45367	822.68225	-4.72371	-630.47278	-679.28668	19.48609	480.46289	735.15802	19.07386	586.16058	48.10419	1287.96594	-992.92651	
3556	35.550	-747.70465	-3.40249	-653.54980	822.69354	-4.69193	-630.46857	-679.29956	19.44517	480.51630	735.12354	19.04369	586.15851	48.04689	1288.02881	-992.94769	
3557	35.560	-747.76447	-3.37949	-653.61395	822.61865	-4.74404	-630.52991	-679.27338	19.37136	480.53290	735.12817	19.03877	586.13373	47.99998	1287.95459	-992.75421	
3558	35.570	-747.77539	-3.48136	-653.54669	822.60217	-4.86152	-630.50482	-679.27985	19.32969	480.59088	735.16095	18.99816	586.17383	48.09995	1287.92920	-992.29736	
3559	35.580	-747.69006	-3.46107	-653.57166	822.62286	-4.82379	-630.53778	-679.23840	19.33709	480.57727	735.20313	19.02452	586.23816	48.19825	1287.94250	-991.71606	
3560	35.590	-747.79156	-3.30755	-653.55994	822.70453	-4.66631	-630.51959	-679.23517	19.37201	480.57291	735.18738	19.01766	586.22095	48.30937	1288.02893	-991.24762	
3561	35.600	-747.65112	-3.23922	-653.47675	822.73840	-4.52460	-630.46399	-679.24213	19.33532	480.54755	735.11078	18.94589	586.23468	48.13483	1288.29773	-990.75378	
3562	35.610	-747.72583	-3.08492	-653.42261	822.73810	-4.44379	-630.43201	-679.30933	19.33126	480.57980	735.01001	18.84204	586.25024	48.18253	1288.49792	-990.40265	
3563	35.620	-747.75879	-2.88491	-653.30920	822.67798	-4.30538	-630.38898	-679.36151	19.17267	480.63498	734.99152	18.74054	586.26288	48.12825	1288.61755	-990.25299	
3564	35.630	-747.70734	-2.71807	-653.16760	822.67126	-4.11593	-630.37427	-679.36353	19.06801	480.73334	734.97113	18.66379	586.32080	48.11167	1288.87610	-990.10608	
3565	35.640	-747.73816	-2.58543	-653.08386	822.65564	-3.95938	-630.31415	-679.37909	18.96943	480.79086	734.91119	18.46326	586.30658	48.10468	1289.31250	-989.86908	
3566	35.650	-747.79510	-2.41845	-653.01013	822.63934	-3.76932	-630.27740	-679.39569	18.89790	480.80627	734.71307	18.02245	586.18030	48.12886	1289.65674	-989.82196	
3567	35.660	-748.00824	-2.41480	-652.97949	822.93866	-3.44447	-630.45404	-679.38031	18.72302	480.93765	735.20435	18.33147	586.38464	47.97739	1289.90820	-989.64771	
